<svg version="1.1" xmlns="http://www.w3.org/2000/svg" xmlns:xlink="http://www.w3.org/1999/xlink" width="1005" height="637"><defs/><g><g><rect fill="#C0C0C0" stroke="none" x="191" y="983" width="152" height="25" transform="matrix(1 0 0 1 -30 -638)" fill-opacity="0.2"/></g><g><rect fill="#EBD8FF" stroke="none" x="184" y="976" width="152" height="25" transform="matrix(1 0 0 1 -30 -638)"/></g><g><path fill="none" stroke="#000000" paint-order="fill stroke markers" d=" M 154 338 L 306 338 L 306 363 L 154 363 L 154 338 Z Z" stroke-miterlimit="10" stroke-dasharray=""/></g><g><g><path fill="none" stroke="none"/><text fill="#000000" stroke="none" font-family="Arial" font-size="13px" font-style="normal" font-weight="bold" text-decoration="undefined" x="260.5" y="989.5" text-anchor="middle" dominant-baseline="central" transform="matrix(1 0 0 1 -30 -638)">View</text></g></g><g><path fill="#ffffff" stroke="none" paint-order="stroke fill markers" d=" M 10 10 L 263 10 L 273 20 L 273 177 L 10 177 L 10 10"/></g><g><path fill="none" stroke="#000000" paint-order="fill stroke markers" d=" M 10 10 L 263 10 L 273 20 L 273 177 L 10 177 L 10 10 L 10 10" stroke-miterlimit="10" stroke-dasharray=""/></g><g><path fill="none" stroke="#000000" paint-order="fill stroke markers" d=" M 263 10 L 263 20 L 273 20 L 263 10" stroke-miterlimit="10" stroke-dasharray=""/></g><g><path fill="#FF0000" stroke="none" paint-order="stroke fill markers" d=" M 50 34 C 50 29.581721600000037 53.581721599999995 26 58 26 C 62.418278400000005 26 66 29.581721600000037 66 34 C 66 38.41827839999996 62.418278400000005 42 58 42 C 53.581721599999995 42 50 38.41827839999996 50 34 Z"/></g><g><path fill="none" stroke="#000000" paint-order="fill stroke markers" d=" M 50 34 C 50 29.581721600000037 53.581721599999995 26 58 26 C 62.418278400000005 26 66 29.581721600000037 66 34 C 66 38.41827839999996 62.418278400000005 42 58 42 C 53.581721599999995 42 50 38.41827839999996 50 34 Z" stroke-miterlimit="10" stroke-dasharray=""/></g><g><path fill="#5656FF" stroke="none" paint-order="stroke fill markers" d=" M 50 58 C 50 53.58172160000004 53.581721599999995 50 58 50 C 62.418278400000005 50 66 53.58172160000004 66 58 C 66 62.41827839999996 62.418278400000005 66 58 66 C 53.581721599999995 66 50 62.41827839999996 50 58 Z"/></g><g><path fill="none" stroke="#000000" paint-order="fill stroke markers" d=" M 50 58 C 50 53.58172160000004 53.581721599999995 50 58 50 C 62.418278400000005 50 66 53.58172160000004 66 58 C 66 62.41827839999996 62.418278400000005 66 58 66 C 53.581721599999995 66 50 62.41827839999996 50 58 Z" stroke-miterlimit="10" stroke-dasharray=""/></g><g><path fill="#FFFFFF" stroke="none" paint-order="stroke fill markers" d=" M 50 106 C 50 101.58172160000004 53.581721599999995 98 58 98 C 62.418278400000005 98 66 101.58172160000004 66 106 C 66 110.41827839999996 62.418278400000005 114 58 114 C 53.581721599999995 114 50 110.41827839999996 50 106 Z"/></g><g><path fill="none" stroke="#000000" paint-order="fill stroke markers" d=" M 50 106 C 50 101.58172160000004 53.581721599999995 98 58 98 C 62.418278400000005 98 66 101.58172160000004 66 106 C 66 110.41827839999996 62.418278400000005 114 58 114 C 53.581721599999995 114 50 110.41827839999996 50 106 Z" stroke-miterlimit="10" stroke-dasharray=""/></g><g><path fill="#D8E5FF" stroke="none" paint-order="stroke fill markers" d=" M 50 82 C 50 77.58172160000004 53.581721599999995 74 58 74 C 62.418278400000005 74 66 77.58172160000004 66 82 C 66 86.41827839999996 62.418278400000005 90 58 90 C 53.581721599999995 90 50 86.41827839999996 50 82 Z"/></g><g><path fill="none" stroke="#000000" paint-order="fill stroke markers" d=" M 50 82 C 50 77.58172160000004 53.581721599999995 74 58 74 C 62.418278400000005 74 66 77.58172160000004 66 82 C 66 86.41827839999996 62.418278400000005 90 58 90 C 53.581721599999995 90 50 86.41827839999996 50 82 Z" stroke-miterlimit="10" stroke-dasharray=""/></g><g><g><path fill="none" stroke="none"/><text fill="#000000" stroke="none" font-family="Arial" font-size="13px" font-style="normal" font-weight="normal" text-decoration="undefined" x="109" y="669" text-anchor="start" dominant-baseline="text-before-edge" transform="matrix(1 0 0 1 -30 -638)">Controlador</text></g></g><g><g><path fill="none" stroke="none"/><text fill="#000000" stroke="none" font-family="Arial" font-size="13px" font-style="normal" font-weight="normal" text-decoration="undefined" x="109" y="693" text-anchor="start" dominant-baseline="text-before-edge" transform="matrix(1 0 0 1 -30 -638)">Servicio</text></g></g><g><g><path fill="none" stroke="none"/><text fill="#000000" stroke="none" font-family="Arial" font-size="13px" font-style="normal" font-weight="normal" text-decoration="undefined" x="109" y="717" text-anchor="start" dominant-baseline="text-before-edge" transform="matrix(1 0 0 1 -30 -638)">Repostorio</text></g></g><g><g><path fill="none" stroke="none"/><text fill="#000000" stroke="none" font-family="Arial" font-size="13px" font-style="normal" font-weight="normal" text-decoration="undefined" x="109" y="741" text-anchor="start" dominant-baseline="text-before-edge" transform="matrix(1 0 0 1 -30 -638)">Elemento</text></g></g><g><g><path fill="none" stroke="none"/><text fill="#000000" stroke="none" font-family="Arial" font-size="13px" font-style="normal" font-weight="normal" text-decoration="undefined" x="109" y="765" text-anchor="start" dominant-baseline="text-before-edge" transform="matrix(1 0 0 1 -30 -638)">Vista</text></g></g><g><path fill="#D6ADFF" stroke="none" paint-order="stroke fill markers" d=" M 50 130 C 50 125.58172160000004 53.581721599999995 122 58 122 C 62.418278400000005 122 66 125.58172160000004 66 130 C 66 134.41827839999996 62.418278400000005 138 58 138 C 53.581721599999995 138 50 134.41827839999996 50 130 Z"/></g><g><path fill="none" stroke="#000000" paint-order="fill stroke markers" d=" M 50 130 C 50 125.58172160000004 53.581721599999995 122 58 122 C 62.418278400000005 122 66 125.58172160000004 66 130 C 66 134.41827839999996 62.418278400000005 138 58 138 C 53.581721599999995 138 50 134.41827839999996 50 130 Z" stroke-miterlimit="10" stroke-dasharray=""/></g><g><rect fill="#C0C0C0" stroke="none" x="935" y="975" width="96" height="45" transform="matrix(1 0 0 1 -30 -638)" fill-opacity="0.2"/></g><g><rect fill="#ffffff" stroke="none" x="928" y="968" width="96" height="45" transform="matrix(1 0 0 1 -30 -638)"/></g><g><path fill="none" stroke="#000000" paint-order="fill stroke markers" d=" M 898 330 L 994 330 L 994 375 L 898 375 L 898 330 Z Z" stroke-miterlimit="10" stroke-dasharray=""/></g><g><g><path fill="none" stroke="none"/><text fill="#000000" stroke="none" font-family="Arial" font-size="13px" font-style="normal" font-weight="bold" text-decoration="undefined" x="976.5" y="981.5" text-anchor="middle" dominant-baseline="central" transform="matrix(1 0 0 1 -30 -638)">Client</text></g></g><g><rect fill="#C0C0C0" stroke="none" x="935" y="1047" width="96" height="45" transform="matrix(1 0 0 1 -30 -638)" fill-opacity="0.2"/></g><g><rect fill="#ffffff" stroke="none" x="928" y="1040" width="96" height="45" transform="matrix(1 0 0 1 -30 -638)"/></g><g><path fill="none" stroke="#000000" paint-order="fill stroke markers" d=" M 898 402 L 994 402 L 994 447 L 898 447 L 898 402 Z Z" stroke-miterlimit="10" stroke-dasharray=""/></g><g><g><path fill="none" stroke="none"/><text fill="#000000" stroke="none" font-family="Arial" font-size="13px" font-style="normal" font-weight="bold" text-decoration="undefined" x="976.5" y="1053.5" text-anchor="middle" dominant-baseline="central" transform="matrix(1 0 0 1 -30 -638)">Comment</text></g></g><g><rect fill="#C0C0C0" stroke="none" x="935" y="1127" width="96" height="45" transform="matrix(1 0 0 1 -30 -638)" fill-opacity="0.2"/></g><g><rect fill="#ffffff" stroke="none" x="928" y="1120" width="96" height="45" transform="matrix(1 0 0 1 -30 -638)"/></g><g><path fill="none" stroke="#000000" paint-order="fill stroke markers" d=" M 898 482 L 994 482 L 994 527 L 898 527 L 898 482 Z Z" stroke-miterlimit="10" stroke-dasharray=""/></g><g><g><path fill="none" stroke="none"/><text fill="#000000" stroke="none" font-family="Arial" font-size="13px" font-style="normal" font-weight="bold" text-decoration="undefined" x="976.5" y="1133.5" text-anchor="middle" dominant-baseline="central" transform="matrix(1 0 0 1 -30 -638)">Event</text></g></g><g><rect fill="#C0C0C0" stroke="none" x="935" y="1215" width="96" height="45" transform="matrix(1 0 0 1 -30 -638)" fill-opacity="0.2"/></g><g><rect fill="#ffffff" stroke="none" x="928" y="1208" width="96" height="45" transform="matrix(1 0 0 1 -30 -638)"/></g><g><path fill="none" stroke="#000000" paint-order="fill stroke markers" d=" M 898 570 L 994 570 L 994 615 L 898 615 L 898 570 Z Z" stroke-miterlimit="10" stroke-dasharray=""/></g><g><g><path fill="none" stroke="none"/><text fill="#000000" stroke="none" font-family="Arial" font-size="13px" font-style="normal" font-weight="bold" text-decoration="undefined" x="976.5" y="1221.5" text-anchor="middle" dominant-baseline="central" transform="matrix(1 0 0 1 -30 -638)">Ticket</text></g></g><g><rect fill="#C0C0C0" stroke="none" x="703" y="975" width="136" height="45" transform="matrix(1 0 0 1 -30 -638)" fill-opacity="0.2"/></g><g><rect fill="#D8E5FF" stroke="none" x="696" y="968" width="136" height="45" transform="matrix(1 0 0 1 -30 -638)"/></g><g><path fill="none" stroke="#000000" paint-order="fill stroke markers" d=" M 666 330 L 802 330 L 802 375 L 666 375 L 666 330 Z Z" stroke-miterlimit="10" stroke-dasharray=""/></g><g><g><path fill="none" stroke="none"/><text fill="#000000" stroke="none" font-family="Arial" font-size="13px" font-style="normal" font-weight="bold" text-decoration="undefined" x="764.5" y="981.5" text-anchor="middle" dominant-baseline="central" transform="matrix(1 0 0 1 -30 -638)">ClientRepository</text></g></g><g><rect fill="#C0C0C0" stroke="none" x="703" y="1047" width="137.84814453125" height="45" transform="matrix(1 0 0 1 -30 -638)" fill-opacity="0.2"/></g><g><rect fill="#D8E5FF" stroke="none" x="696" y="1040" width="137.84814453125" height="45" transform="matrix(1 0 0 1 -30 -638)"/></g><g><path fill="none" stroke="#000000" paint-order="fill stroke markers" d=" M 666 402 L 803.84814453125 402 L 803.84814453125 447 L 666 447 L 666 402 Z Z" stroke-miterlimit="10" stroke-dasharray=""/></g><g><g><path fill="none" stroke="none"/><text fill="#000000" stroke="none" font-family="Arial" font-size="13px" font-style="normal" font-weight="bold" text-decoration="undefined" x="765.424072265625" y="1053.5" text-anchor="middle" dominant-baseline="central" transform="matrix(1 0 0 1 -30 -638)">CommentRepository</text></g></g><g><rect fill="#C0C0C0" stroke="none" x="703" y="1127" width="136" height="48" transform="matrix(1 0 0 1 -30 -638)" fill-opacity="0.2"/></g><g><rect fill="#D8E5FF" stroke="none" x="696" y="1120" width="136" height="48" transform="matrix(1 0 0 1 -30 -638)"/></g><g><path fill="none" stroke="#000000" paint-order="fill stroke markers" d=" M 666 482 L 802 482 L 802 530 L 666 530 L 666 482 Z Z" stroke-miterlimit="10" stroke-dasharray=""/></g><g><g><path fill="none" stroke="none"/><text fill="#000000" stroke="none" font-family="Arial" font-size="13px" font-style="normal" font-weight="bold" text-decoration="undefined" x="764.5" y="1133.5" text-anchor="middle" dominant-baseline="central" transform="matrix(1 0 0 1 -30 -638)">EventRepository</text></g></g><g><rect fill="#C0C0C0" stroke="none" x="703" y="1215" width="136" height="45" transform="matrix(1 0 0 1 -30 -638)" fill-opacity="0.2"/></g><g><rect fill="#D8E5FF" stroke="none" x="696" y="1208" width="136" height="45" transform="matrix(1 0 0 1 -30 -638)"/></g><g><path fill="none" stroke="#000000" paint-order="fill stroke markers" d=" M 666 570 L 802 570 L 802 615 L 666 615 L 666 570 Z Z" stroke-miterlimit="10" stroke-dasharray=""/></g><g><g><path fill="none" stroke="none"/><text fill="#000000" stroke="none" font-family="Arial" font-size="13px" font-style="normal" font-weight="bold" text-decoration="undefined" x="764.5" y="1221.5" text-anchor="middle" dominant-baseline="central" transform="matrix(1 0 0 1 -30 -638)">TicketRepository</text></g></g><g><rect fill="#C0C0C0" stroke="none" x="191" y="1055" width="152" height="25" transform="matrix(1 0 0 1 -30 -638)" fill-opacity="0.2"/></g><g><rect fill="#EBD8FF" stroke="none" x="184" y="1048" width="152" height="25" transform="matrix(1 0 0 1 -30 -638)"/></g><g><path fill="none" stroke="#000000" paint-order="fill stroke markers" d=" M 154 410 L 306 410 L 306 435 L 154 435 L 154 410 Z Z" stroke-miterlimit="10" stroke-dasharray=""/></g><g><g><path fill="none" stroke="none"/><text fill="#000000" stroke="none" font-family="Arial" font-size="13px" font-style="normal" font-weight="bold" text-decoration="undefined" x="260.5" y="1061.5" text-anchor="middle" dominant-baseline="central" transform="matrix(1 0 0 1 -30 -638)">View</text></g></g><g><rect fill="#C0C0C0" stroke="none" x="191" y="1143" width="152" height="25" transform="matrix(1 0 0 1 -30 -638)" fill-opacity="0.2"/></g><g><rect fill="#EBD8FF" stroke="none" x="184" y="1136" width="152" height="25" transform="matrix(1 0 0 1 -30 -638)"/></g><g><path fill="none" stroke="#000000" paint-order="fill stroke markers" d=" M 154 498 L 306 498 L 306 523 L 154 523 L 154 498 Z Z" stroke-miterlimit="10" stroke-dasharray=""/></g><g><g><path fill="none" stroke="none"/><text fill="#000000" stroke="none" font-family="Arial" font-size="13px" font-style="normal" font-weight="bold" text-decoration="undefined" x="260.5" y="1149.5" text-anchor="middle" dominant-baseline="central" transform="matrix(1 0 0 1 -30 -638)">View</text></g></g><g><rect fill="#C0C0C0" stroke="none" x="487" y="975" width="108.2236328125" height="45" transform="matrix(1 0 0 1 -30 -638)" fill-opacity="0.2"/></g><g><rect fill="#FFD8D8" stroke="none" x="480" y="968" width="108.2236328125" height="45" transform="matrix(1 0 0 1 -30 -638)"/></g><g><path fill="none" stroke="#000000" paint-order="fill stroke markers" d=" M 450 330 L 558.2236328125 330 L 558.2236328125 375 L 450 375 L 450 330 Z Z" stroke-miterlimit="10" stroke-dasharray=""/></g><g><g><path fill="none" stroke="none"/><text fill="#000000" stroke="none" font-family="Arial" font-size="13px" font-style="normal" font-weight="bold" text-decoration="undefined" x="534.61181640625" y="981.5" text-anchor="middle" dominant-baseline="central" transform="matrix(1 0 0 1 -30 -638)">ClientController</text></g></g><g><rect fill="#C0C0C0" stroke="none" x="487" y="1047" width="112" height="40" transform="matrix(1 0 0 1 -30 -638)" fill-opacity="0.2"/></g><g><rect fill="#FFD8D8" stroke="none" x="480" y="1040" width="112" height="40" transform="matrix(1 0 0 1 -30 -638)"/></g><g><path fill="none" stroke="#000000" paint-order="fill stroke markers" d=" M 450 402 L 562 402 L 562 442 L 450 442 L 450 402 Z Z" stroke-miterlimit="10" stroke-dasharray=""/></g><g><g><path fill="none" stroke="none"/><text fill="#000000" stroke="none" font-family="Arial" font-size="13px" font-style="normal" font-weight="bold" text-decoration="undefined" x="536.5" y="1053.5" text-anchor="middle" dominant-baseline="central" transform="matrix(1 0 0 1 -30 -638)">ControllerApp</text></g></g><g><rect fill="#C0C0C0" stroke="none" x="487" y="1135" width="112" height="40" transform="matrix(1 0 0 1 -30 -638)" fill-opacity="0.2"/></g><g><rect fill="#FFD8D8" stroke="none" x="480" y="1128" width="112" height="40" transform="matrix(1 0 0 1 -30 -638)"/></g><g><path fill="none" stroke="#000000" paint-order="fill stroke markers" d=" M 450 490 L 562 490 L 562 530 L 450 530 L 450 490 Z Z" stroke-miterlimit="10" stroke-dasharray=""/></g><g><g><path fill="none" stroke="none"/><text fill="#000000" stroke="none" font-family="Arial" font-size="13px" font-style="normal" font-weight="bold" text-decoration="undefined" x="536.5" y="1141.5" text-anchor="middle" dominant-baseline="central" transform="matrix(1 0 0 1 -30 -638)">EventController</text></g></g><g><path fill="none" stroke="#000000" paint-order="fill stroke markers" d=" M 449 352 L 307 351" stroke-miterlimit="10" stroke-dasharray=""/></g><g><path fill="none" stroke="#000000" paint-order="fill stroke markers" d=" M 317.1920666227116 346.8621529803281 L 307 351 L 317.13277911034703 355.2809797361019" stroke-miterlimit="10" stroke-dasharray=""/></g><g><path fill="none" stroke="#000000" paint-order="fill stroke markers" d=" M 449 422 L 307 422" stroke-miterlimit="10" stroke-dasharray=""/></g><g><path fill="none" stroke="#000000" paint-order="fill stroke markers" d=" M 317.16267485762415 417.7904822439841 L 307 422 L 317.16267485762415 426.2095177560159" stroke-miterlimit="10" stroke-dasharray=""/></g><g><path fill="none" stroke="#000000" paint-order="fill stroke markers" d=" M 449 510 L 307 510" stroke-miterlimit="10" stroke-dasharray=""/></g><g><path fill="none" stroke="#000000" paint-order="fill stroke markers" d=" M 317.16267485762415 505.7904822439841 L 307 510 L 317.16267485762415 514.2095177560159" stroke-miterlimit="10" stroke-dasharray=""/></g><g><g><path fill="none" stroke="none"/><text fill="#330066" stroke="none" font-family="Arial" font-size="13px" font-style="normal" font-weight="normal" text-decoration="undefined" x="45" y="973" text-anchor="start" dominant-baseline="text-before-edge" transform="matrix(1 0 0 1 -30 -638)">registroSesion.html</text></g></g><g><g><path fill="none" stroke="none"/><text fill="#330066" stroke="none" font-family="Arial" font-size="13px" font-style="normal" font-weight="normal" text-decoration="undefined" x="45" y="989" text-anchor="start" dominant-baseline="text-before-edge" transform="matrix(1 0 0 1 -30 -638)">error.html</text></g></g><g><g><path fill="none" stroke="none"/><text fill="#330066" stroke="none" font-family="Arial" font-size="13px" font-style="normal" font-weight="normal" text-decoration="undefined" x="45" y="1005" text-anchor="start" dominant-baseline="text-before-edge" transform="matrix(1 0 0 1 -30 -638)">ticketComprado.html</text></g></g><g><g><path fill="none" stroke="none"/><text fill="#330066" stroke="none" font-family="Arial" font-size="13px" font-style="normal" font-weight="normal" text-decoration="undefined" x="45" y="957" text-anchor="start" dominant-baseline="text-before-edge" transform="matrix(1 0 0 1 -30 -638)">misdatos.html</text></g></g><g><g><path fill="none" stroke="none"/><text fill="#330066" stroke="none" font-family="Arial" font-size="13px" font-style="normal" font-weight="normal" text-decoration="undefined" x="45" y="1037" text-anchor="start" dominant-baseline="text-before-edge" transform="matrix(1 0 0 1 -30 -638)">index.html</text></g></g><g><g><path fill="none" stroke="none"/><text fill="#330066" stroke="none" font-family="Arial" font-size="13px" font-style="normal" font-weight="normal" text-decoration="undefined" x="45" y="1053" text-anchor="start" dominant-baseline="text-before-edge" transform="matrix(1 0 0 1 -30 -638)">contactanos.html</text></g></g><g><g><path fill="none" stroke="none"/><text fill="#330066" stroke="none" font-family="Arial" font-size="13px" font-style="normal" font-weight="normal" text-decoration="undefined" x="45" y="1067" text-anchor="start" dominant-baseline="text-before-edge" transform="matrix(1 0 0 1 -30 -638)">register.html</text></g></g><g><g><path fill="none" stroke="none"/><text fill="#330066" stroke="none" font-family="Arial" font-size="13px" font-style="normal" font-weight="normal" text-decoration="undefined" x="45" y="1117" text-anchor="start" dominant-baseline="text-before-edge" transform="matrix(1 0 0 1 -30 -638)">clubbing.html</text></g></g><g><g><path fill="none" stroke="none"/><text fill="#330066" stroke="none" font-family="Arial" font-size="13px" font-style="normal" font-weight="normal" text-decoration="undefined" x="45" y="1133" text-anchor="start" dominant-baseline="text-before-edge" transform="matrix(1 0 0 1 -30 -638)">conciertos.html</text></g></g><g><g><path fill="none" stroke="none"/><text fill="#330066" stroke="none" font-family="Arial" font-size="13px" font-style="normal" font-weight="normal" text-decoration="undefined" x="45" y="1149" text-anchor="start" dominant-baseline="text-before-edge" transform="matrix(1 0 0 1 -30 -638)">ticket.html</text></g></g><g><g><path fill="none" stroke="none"/><text fill="#330066" stroke="none" font-family="Arial" font-size="13px" font-style="normal" font-weight="normal" text-decoration="undefined" x="45" y="1165" text-anchor="start" dominant-baseline="text-before-edge" transform="matrix(1 0 0 1 -30 -638)">comentarSinCuenta.html</text></g></g><g><g><path fill="none" stroke="none"/><text fill="#330066" stroke="none" font-family="Arial" font-size="13px" font-style="normal" font-weight="normal" text-decoration="undefined" x="45" y="1181" text-anchor="start" dominant-baseline="text-before-edge" transform="matrix(1 0 0 1 -30 -638)">error.html</text></g></g><g><g><path fill="none" stroke="none"/><text fill="#330066" stroke="none" font-family="Arial" font-size="13px" font-style="normal" font-weight="normal" text-decoration="undefined" x="45" y="1197" text-anchor="start" dominant-baseline="text-before-edge" transform="matrix(1 0 0 1 -30 -638)">commentEliminado.html</text></g></g><g><g><path fill="none" stroke="none"/><text fill="#330066" stroke="none" font-family="Arial" font-size="13px" font-style="normal" font-weight="normal" text-decoration="undefined" x="45" y="1213" text-anchor="start" dominant-baseline="text-before-edge" transform="matrix(1 0 0 1 -30 -638)">eventEliminado.html</text></g></g><g><g><path fill="none" stroke="none"/><text fill="#330066" stroke="none" font-family="Arial" font-size="13px" font-style="normal" font-weight="normal" text-decoration="undefined" x="45" y="1229" text-anchor="start" dominant-baseline="text-before-edge" transform="matrix(1 0 0 1 -30 -638)">newEvent.html</text></g></g><g><g><path fill="none" stroke="none"/><text fill="#330066" stroke="none" font-family="Arial" font-size="13px" font-style="normal" font-weight="normal" text-decoration="undefined" x="45" y="1245" text-anchor="start" dominant-baseline="text-before-edge" transform="matrix(1 0 0 1 -30 -638)">createdEvent.html</text></g></g><g><path fill="none" stroke="#000000" paint-order="fill stroke markers" d=" M 563 508 L 610 506 L 610 426 L 665 425" stroke-miterlimit="10" stroke-dasharray=""/></g><g><path fill="none" stroke="#000000" paint-order="fill stroke markers" d=" M 654.9155285459009 429.39356751301943 L 665 425 L 654.7624804680675 420.97592323218123" stroke-miterlimit="10" stroke-dasharray=""/></g><g><path fill="none" stroke="#000000" paint-order="fill stroke markers" d=" M 563 509 L 665 507" stroke-miterlimit="10" stroke-dasharray=""/></g><g><path fill="none" stroke="#000000" paint-order="fill stroke markers" d=" M 654.9218018899201 511.40793861731095 L 665 507 L 654.7567544868664 502.9905210615757" stroke-miterlimit="10" stroke-dasharray=""/></g><g><path fill="none" stroke="#000000" paint-order="fill stroke markers" d=" M 506 531 L 506 594 L 665 593" stroke-miterlimit="10" stroke-dasharray=""/></g><g><path fill="none" stroke="#000000" paint-order="fill stroke markers" d=" M 654.8640005615764 597.2733494339075 L 665 593 L 654.811051699892 588.8544804260832" stroke-miterlimit="10" stroke-dasharray=""/></g><g><path fill="none" stroke="#000000" paint-order="fill stroke markers" d=" M 563 508 L 610 506 L 610 354 L 665 353" stroke-miterlimit="10" stroke-dasharray=""/></g><g><path fill="none" stroke="#000000" paint-order="fill stroke markers" d=" M 654.9155285459009 357.3935675130193 L 665 353 L 654.7624804680675 348.97592323218123" stroke-miterlimit="10" stroke-dasharray=""/></g><g><path fill="none" stroke="#000000" paint-order="fill stroke markers" d=" M 559 352 L 665 352" stroke-miterlimit="10" stroke-dasharray=""/></g><g><path fill="none" stroke="#000000" paint-order="fill stroke markers" d=" M 654.8373251423759 356.209517756016 L 665 352 L 654.8373251423758 347.790482243984" stroke-miterlimit="10" stroke-dasharray=""/></g><g><path fill="none" stroke="#000000" paint-order="fill stroke markers" d=" M 559 353 L 612 354 L 610 426 L 665 425" stroke-miterlimit="10" stroke-dasharray=""/></g><g><path fill="none" stroke="#000000" paint-order="fill stroke markers" d=" M 654.9155285459009 429.39356751301943 L 665 425 L 654.7624804680675 420.97592323218123" stroke-miterlimit="10" stroke-dasharray=""/></g><g><path fill="none" stroke="#000000" paint-order="fill stroke markers" d=" M 563 423 L 665 423" stroke-miterlimit="10" stroke-dasharray=""/></g><g><path fill="none" stroke="#000000" paint-order="fill stroke markers" d=" M 654.8373251423759 427.2095177560159 L 665 423 L 654.8373251423758 418.7904822439841" stroke-miterlimit="10" stroke-dasharray=""/></g><g><path fill="none" stroke="#000000" paint-order="fill stroke markers" d=" M 803 352 L 897 352" stroke-miterlimit="10" stroke-dasharray=""/></g><g><path fill="none" stroke="#000000" paint-order="fill stroke markers" d=" M 886.8373251423759 356.209517756016 L 897 352 L 886.8373251423758 347.790482243984" stroke-miterlimit="10" stroke-dasharray=""/></g><g><path fill="none" stroke="#000000" paint-order="fill stroke markers" d=" M 805 424 L 897 424" stroke-miterlimit="10" stroke-dasharray=""/></g><g><path fill="none" stroke="#000000" paint-order="fill stroke markers" d=" M 886.8373251423759 428.2095177560159 L 897 424 L 886.8373251423758 419.7904822439841" stroke-miterlimit="10" stroke-dasharray=""/></g><g><path fill="none" stroke="#000000" paint-order="fill stroke markers" d=" M 803 505 L 897 504" stroke-miterlimit="10" stroke-dasharray=""/></g><g><path fill="none" stroke="#000000" paint-order="fill stroke markers" d=" M 886.8826797356397 508.31738701859877 L 897 504 L 886.7931205957768 499.8988278714926" stroke-miterlimit="10" stroke-dasharray=""/></g><g><path fill="none" stroke="#000000" paint-order="fill stroke markers" d=" M 803 592 L 897 592" stroke-miterlimit="10" stroke-dasharray=""/></g><g><path fill="none" stroke="#000000" paint-order="fill stroke markers" d=" M 886.8373251423759 596.2095177560159 L 897 592 L 886.8373251423758 587.7904822439841" stroke-miterlimit="10" stroke-dasharray=""/></g></g></svg>