<svg version="1.1" xmlns="http://www.w3.org/2000/svg" xmlns:xlink="http://www.w3.org/1999/xlink" width="1196" height="1030"><defs/><g><g><rect fill="#ffffff" stroke="none" x="8" y="416" width="1176" height="1010" transform="matrix(1 0 0 1 2 -406)"/></g><g><path fill="none" stroke="#000000" paint-order="fill stroke markers" d=" M 10 10 L 1186 10 L 1186 1020 L 10 1020 L 10 10 Z Z" stroke-miterlimit="10" stroke-dasharray=""/></g><g><rect fill="#C0C0C0" stroke="none" x="191" y="983" width="152" height="25" transform="matrix(1 0 0 1 2 -406)" fill-opacity="0.2"/></g><g><rect fill="#EBD8FF" stroke="none" x="184" y="976" width="152" height="25" transform="matrix(1 0 0 1 2 -406)"/></g><g><path fill="none" stroke="#000000" paint-order="fill stroke markers" d=" M 186 570 L 338 570 L 338 595 L 186 595 L 186 570 Z Z" stroke-miterlimit="10" stroke-dasharray=""/></g><g><g><path fill="none" stroke="none"/><text fill="#000000" stroke="none" font-family="Arial" font-size="13px" font-style="normal" font-weight="bold" text-decoration="undefined" x="260.5" y="989.5" text-anchor="middle" dominant-baseline="central" transform="matrix(1 0 0 1 2 -406)">View</text></g></g><g><path fill="#ffffff" stroke="none" paint-order="stroke fill markers" d=" M 42 242 L 295 242 L 305 252 L 305 409 L 42 409 L 42 242"/></g><g><path fill="none" stroke="#000000" paint-order="fill stroke markers" d=" M 42 242 L 295 242 L 305 252 L 305 409 L 42 409 L 42 242 L 42 242" stroke-miterlimit="10" stroke-dasharray=""/></g><g><path fill="none" stroke="#000000" paint-order="fill stroke markers" d=" M 295 242 L 295 252 L 305 252 L 295 242" stroke-miterlimit="10" stroke-dasharray=""/></g><g><path fill="#FF0000" stroke="none" paint-order="stroke fill markers" d=" M 82 266 C 82 261.58172160000004 85.5817216 258 90 258 C 94.4182784 258 98 261.58172160000004 98 266 C 98 270.41827839999996 94.4182784 274 90 274 C 85.5817216 274 82 270.41827839999996 82 266 Z"/></g><g><path fill="none" stroke="#000000" paint-order="fill stroke markers" d=" M 82 266 C 82 261.58172160000004 85.5817216 258 90 258 C 94.4182784 258 98 261.58172160000004 98 266 C 98 270.41827839999996 94.4182784 274 90 274 C 85.5817216 274 82 270.41827839999996 82 266 Z" stroke-miterlimit="10" stroke-dasharray=""/></g><g><path fill="#5656FF" stroke="none" paint-order="stroke fill markers" d=" M 82 290 C 82 285.58172160000004 85.5817216 282 90 282 C 94.4182784 282 98 285.58172160000004 98 290 C 98 294.41827839999996 94.4182784 298 90 298 C 85.5817216 298 82 294.41827839999996 82 290 Z"/></g><g><path fill="none" stroke="#000000" paint-order="fill stroke markers" d=" M 82 290 C 82 285.58172160000004 85.5817216 282 90 282 C 94.4182784 282 98 285.58172160000004 98 290 C 98 294.41827839999996 94.4182784 298 90 298 C 85.5817216 298 82 294.41827839999996 82 290 Z" stroke-miterlimit="10" stroke-dasharray=""/></g><g><path fill="#FFFFFF" stroke="none" paint-order="stroke fill markers" d=" M 82 338 C 82 333.58172160000004 85.5817216 330 90 330 C 94.4182784 330 98 333.58172160000004 98 338 C 98 342.41827839999996 94.4182784 346 90 346 C 85.5817216 346 82 342.41827839999996 82 338 Z"/></g><g><path fill="none" stroke="#000000" paint-order="fill stroke markers" d=" M 82 338 C 82 333.58172160000004 85.5817216 330 90 330 C 94.4182784 330 98 333.58172160000004 98 338 C 98 342.41827839999996 94.4182784 346 90 346 C 85.5817216 346 82 342.41827839999996 82 338 Z" stroke-miterlimit="10" stroke-dasharray=""/></g><g><path fill="#D8E5FF" stroke="none" paint-order="stroke fill markers" d=" M 82 314 C 82 309.58172160000004 85.5817216 306 90 306 C 94.4182784 306 98 309.58172160000004 98 314 C 98 318.41827839999996 94.4182784 322 90 322 C 85.5817216 322 82 318.41827839999996 82 314 Z"/></g><g><path fill="none" stroke="#000000" paint-order="fill stroke markers" d=" M 82 314 C 82 309.58172160000004 85.5817216 306 90 306 C 94.4182784 306 98 309.58172160000004 98 314 C 98 318.41827839999996 94.4182784 322 90 322 C 85.5817216 322 82 318.41827839999996 82 314 Z" stroke-miterlimit="10" stroke-dasharray=""/></g><g><g><path fill="none" stroke="none"/><text fill="#000000" stroke="none" font-family="Arial" font-size="13px" font-style="normal" font-weight="normal" text-decoration="undefined" x="109" y="669" text-anchor="start" dominant-baseline="text-before-edge" transform="matrix(1 0 0 1 2 -406)">Controlador</text></g></g><g><g><path fill="none" stroke="none"/><text fill="#000000" stroke="none" font-family="Arial" font-size="13px" font-style="normal" font-weight="normal" text-decoration="undefined" x="109" y="693" text-anchor="start" dominant-baseline="text-before-edge" transform="matrix(1 0 0 1 2 -406)">Servicio</text></g></g><g><g><path fill="none" stroke="none"/><text fill="#000000" stroke="none" font-family="Arial" font-size="13px" font-style="normal" font-weight="normal" text-decoration="undefined" x="109" y="717" text-anchor="start" dominant-baseline="text-before-edge" transform="matrix(1 0 0 1 2 -406)">Repostorio</text></g></g><g><g><path fill="none" stroke="none"/><text fill="#000000" stroke="none" font-family="Arial" font-size="13px" font-style="normal" font-weight="normal" text-decoration="undefined" x="109" y="741" text-anchor="start" dominant-baseline="text-before-edge" transform="matrix(1 0 0 1 2 -406)">Elemento</text></g></g><g><g><path fill="none" stroke="none"/><text fill="#000000" stroke="none" font-family="Arial" font-size="13px" font-style="normal" font-weight="normal" text-decoration="undefined" x="109" y="765" text-anchor="start" dominant-baseline="text-before-edge" transform="matrix(1 0 0 1 2 -406)">Vista</text></g></g><g><path fill="#D6ADFF" stroke="none" paint-order="stroke fill markers" d=" M 82 362 C 82 357.58172160000004 85.5817216 354 90 354 C 94.4182784 354 98 357.58172160000004 98 362 C 98 366.41827839999996 94.4182784 370 90 370 C 85.5817216 370 82 366.41827839999996 82 362 Z"/></g><g><path fill="none" stroke="#000000" paint-order="fill stroke markers" d=" M 82 362 C 82 357.58172160000004 85.5817216 354 90 354 C 94.4182784 354 98 357.58172160000004 98 362 C 98 366.41827839999996 94.4182784 370 90 370 C 85.5817216 370 82 366.41827839999996 82 362 Z" stroke-miterlimit="10" stroke-dasharray=""/></g><g><rect fill="#C0C0C0" stroke="none" x="935" y="975" width="96" height="45" transform="matrix(1 0 0 1 2 -406)" fill-opacity="0.2"/></g><g><rect fill="#ffffff" stroke="none" x="928" y="968" width="96" height="45" transform="matrix(1 0 0 1 2 -406)"/></g><g><path fill="none" stroke="#000000" paint-order="fill stroke markers" d=" M 930 562 L 1026 562 L 1026 607 L 930 607 L 930 562 Z Z" stroke-miterlimit="10" stroke-dasharray=""/></g><g><g><path fill="none" stroke="none"/><text fill="#000000" stroke="none" font-family="Arial" font-size="13px" font-style="normal" font-weight="bold" text-decoration="undefined" x="976.5" y="981.5" text-anchor="middle" dominant-baseline="central" transform="matrix(1 0 0 1 2 -406)">Client</text></g></g><g><rect fill="#C0C0C0" stroke="none" x="935" y="1047" width="96" height="45" transform="matrix(1 0 0 1 2 -406)" fill-opacity="0.2"/></g><g><rect fill="#ffffff" stroke="none" x="928" y="1040" width="96" height="45" transform="matrix(1 0 0 1 2 -406)"/></g><g><path fill="none" stroke="#000000" paint-order="fill stroke markers" d=" M 930 634 L 1026 634 L 1026 679 L 930 679 L 930 634 Z Z" stroke-miterlimit="10" stroke-dasharray=""/></g><g><g><path fill="none" stroke="none"/><text fill="#000000" stroke="none" font-family="Arial" font-size="13px" font-style="normal" font-weight="bold" text-decoration="undefined" x="976.5" y="1053.5" text-anchor="middle" dominant-baseline="central" transform="matrix(1 0 0 1 2 -406)">Comment</text></g></g><g><rect fill="#C0C0C0" stroke="none" x="935" y="1127" width="96" height="45" transform="matrix(1 0 0 1 2 -406)" fill-opacity="0.2"/></g><g><rect fill="#ffffff" stroke="none" x="928" y="1120" width="96" height="45" transform="matrix(1 0 0 1 2 -406)"/></g><g><path fill="none" stroke="#000000" paint-order="fill stroke markers" d=" M 930 714 L 1026 714 L 1026 759 L 930 759 L 930 714 Z Z" stroke-miterlimit="10" stroke-dasharray=""/></g><g><g><path fill="none" stroke="none"/><text fill="#000000" stroke="none" font-family="Arial" font-size="13px" font-style="normal" font-weight="bold" text-decoration="undefined" x="976.5" y="1133.5" text-anchor="middle" dominant-baseline="central" transform="matrix(1 0 0 1 2 -406)">Event</text></g></g><g><rect fill="#C0C0C0" stroke="none" x="935" y="1215" width="96" height="45" transform="matrix(1 0 0 1 2 -406)" fill-opacity="0.2"/></g><g><rect fill="#ffffff" stroke="none" x="928" y="1208" width="96" height="45" transform="matrix(1 0 0 1 2 -406)"/></g><g><path fill="none" stroke="#000000" paint-order="fill stroke markers" d=" M 930 802 L 1026 802 L 1026 847 L 930 847 L 930 802 Z Z" stroke-miterlimit="10" stroke-dasharray=""/></g><g><g><path fill="none" stroke="none"/><text fill="#000000" stroke="none" font-family="Arial" font-size="13px" font-style="normal" font-weight="bold" text-decoration="undefined" x="976.5" y="1221.5" text-anchor="middle" dominant-baseline="central" transform="matrix(1 0 0 1 2 -406)">Ticket</text></g></g><g><rect fill="#C0C0C0" stroke="none" x="703" y="975" width="136" height="45" transform="matrix(1 0 0 1 2 -406)" fill-opacity="0.2"/></g><g><rect fill="#D8E5FF" stroke="none" x="696" y="968" width="136" height="45" transform="matrix(1 0 0 1 2 -406)"/></g><g><path fill="none" stroke="#000000" paint-order="fill stroke markers" d=" M 698 562 L 834 562 L 834 607 L 698 607 L 698 562 Z Z" stroke-miterlimit="10" stroke-dasharray=""/></g><g><g><path fill="none" stroke="none"/><text fill="#000000" stroke="none" font-family="Arial" font-size="13px" font-style="normal" font-weight="bold" text-decoration="undefined" x="764.5" y="981.5" text-anchor="middle" dominant-baseline="central" transform="matrix(1 0 0 1 2 -406)">ClientRepository</text></g></g><g><rect fill="#C0C0C0" stroke="none" x="703" y="1047" width="137.84814453125" height="45" transform="matrix(1 0 0 1 2 -406)" fill-opacity="0.2"/></g><g><rect fill="#D8E5FF" stroke="none" x="696" y="1040" width="137.84814453125" height="45" transform="matrix(1 0 0 1 2 -406)"/></g><g><path fill="none" stroke="#000000" paint-order="fill stroke markers" d=" M 698 634 L 835.84814453125 634 L 835.84814453125 679 L 698 679 L 698 634 Z Z" stroke-miterlimit="10" stroke-dasharray=""/></g><g><g><path fill="none" stroke="none"/><text fill="#000000" stroke="none" font-family="Arial" font-size="13px" font-style="normal" font-weight="bold" text-decoration="undefined" x="765.424072265625" y="1053.5" text-anchor="middle" dominant-baseline="central" transform="matrix(1 0 0 1 2 -406)">CommentRepository</text></g></g><g><rect fill="#C0C0C0" stroke="none" x="703" y="1127" width="136" height="48" transform="matrix(1 0 0 1 2 -406)" fill-opacity="0.2"/></g><g><rect fill="#D8E5FF" stroke="none" x="696" y="1120" width="136" height="48" transform="matrix(1 0 0 1 2 -406)"/></g><g><path fill="none" stroke="#000000" paint-order="fill stroke markers" d=" M 698 714 L 834 714 L 834 762 L 698 762 L 698 714 Z Z" stroke-miterlimit="10" stroke-dasharray=""/></g><g><g><path fill="none" stroke="none"/><text fill="#000000" stroke="none" font-family="Arial" font-size="13px" font-style="normal" font-weight="bold" text-decoration="undefined" x="764.5" y="1133.5" text-anchor="middle" dominant-baseline="central" transform="matrix(1 0 0 1 2 -406)">EventRepository</text></g></g><g><rect fill="#C0C0C0" stroke="none" x="703" y="1215" width="136" height="45" transform="matrix(1 0 0 1 2 -406)" fill-opacity="0.2"/></g><g><rect fill="#D8E5FF" stroke="none" x="696" y="1208" width="136" height="45" transform="matrix(1 0 0 1 2 -406)"/></g><g><path fill="none" stroke="#000000" paint-order="fill stroke markers" d=" M 698 802 L 834 802 L 834 847 L 698 847 L 698 802 Z Z" stroke-miterlimit="10" stroke-dasharray=""/></g><g><g><path fill="none" stroke="none"/><text fill="#000000" stroke="none" font-family="Arial" font-size="13px" font-style="normal" font-weight="bold" text-decoration="undefined" x="764.5" y="1221.5" text-anchor="middle" dominant-baseline="central" transform="matrix(1 0 0 1 2 -406)">TicketRepository</text></g></g><g><rect fill="#C0C0C0" stroke="none" x="191" y="1055" width="152" height="25" transform="matrix(1 0 0 1 2 -406)" fill-opacity="0.2"/></g><g><rect fill="#EBD8FF" stroke="none" x="184" y="1048" width="152" height="25" transform="matrix(1 0 0 1 2 -406)"/></g><g><path fill="none" stroke="#000000" paint-order="fill stroke markers" d=" M 186 642 L 338 642 L 338 667 L 186 667 L 186 642 Z Z" stroke-miterlimit="10" stroke-dasharray=""/></g><g><g><path fill="none" stroke="none"/><text fill="#000000" stroke="none" font-family="Arial" font-size="13px" font-style="normal" font-weight="bold" text-decoration="undefined" x="260.5" y="1061.5" text-anchor="middle" dominant-baseline="central" transform="matrix(1 0 0 1 2 -406)">View</text></g></g><g><rect fill="#C0C0C0" stroke="none" x="191" y="1143" width="152" height="25" transform="matrix(1 0 0 1 2 -406)" fill-opacity="0.2"/></g><g><rect fill="#EBD8FF" stroke="none" x="184" y="1136" width="152" height="25" transform="matrix(1 0 0 1 2 -406)"/></g><g><path fill="none" stroke="#000000" paint-order="fill stroke markers" d=" M 186 730 L 338 730 L 338 755 L 186 755 L 186 730 Z Z" stroke-miterlimit="10" stroke-dasharray=""/></g><g><g><path fill="none" stroke="none"/><text fill="#000000" stroke="none" font-family="Arial" font-size="13px" font-style="normal" font-weight="bold" text-decoration="undefined" x="260.5" y="1149.5" text-anchor="middle" dominant-baseline="central" transform="matrix(1 0 0 1 2 -406)">View</text></g></g><g><rect fill="#C0C0C0" stroke="none" x="487" y="975" width="108.2236328125" height="45" transform="matrix(1 0 0 1 2 -406)" fill-opacity="0.2"/></g><g><rect fill="#FFD8D8" stroke="none" x="480" y="968" width="108.2236328125" height="45" transform="matrix(1 0 0 1 2 -406)"/></g><g><path fill="none" stroke="#000000" paint-order="fill stroke markers" d=" M 482 562 L 590.2236328125 562 L 590.2236328125 607 L 482 607 L 482 562 Z Z" stroke-miterlimit="10" stroke-dasharray=""/></g><g><g><path fill="none" stroke="none"/><text fill="#000000" stroke="none" font-family="Arial" font-size="13px" font-style="normal" font-weight="bold" text-decoration="undefined" x="534.61181640625" y="981.5" text-anchor="middle" dominant-baseline="central" transform="matrix(1 0 0 1 2 -406)">ClientController</text></g></g><g><rect fill="#C0C0C0" stroke="none" x="487" y="1047" width="112" height="40" transform="matrix(1 0 0 1 2 -406)" fill-opacity="0.2"/></g><g><rect fill="#FFD8D8" stroke="none" x="480" y="1040" width="112" height="40" transform="matrix(1 0 0 1 2 -406)"/></g><g><path fill="none" stroke="#000000" paint-order="fill stroke markers" d=" M 482 634 L 594 634 L 594 674 L 482 674 L 482 634 Z Z" stroke-miterlimit="10" stroke-dasharray=""/></g><g><g><path fill="none" stroke="none"/><text fill="#000000" stroke="none" font-family="Arial" font-size="13px" font-style="normal" font-weight="bold" text-decoration="undefined" x="536.5" y="1053.5" text-anchor="middle" dominant-baseline="central" transform="matrix(1 0 0 1 2 -406)">ControllerApp</text></g></g><g><rect fill="#C0C0C0" stroke="none" x="487" y="1135" width="112" height="40" transform="matrix(1 0 0 1 2 -406)" fill-opacity="0.2"/></g><g><rect fill="#FFD8D8" stroke="none" x="480" y="1128" width="112" height="40" transform="matrix(1 0 0 1 2 -406)"/></g><g><path fill="none" stroke="#000000" paint-order="fill stroke markers" d=" M 482 722 L 594 722 L 594 762 L 482 762 L 482 722 Z Z" stroke-miterlimit="10" stroke-dasharray=""/></g><g><g><path fill="none" stroke="none"/><text fill="#000000" stroke="none" font-family="Arial" font-size="13px" font-style="normal" font-weight="bold" text-decoration="undefined" x="536.5" y="1141.5" text-anchor="middle" dominant-baseline="central" transform="matrix(1 0 0 1 2 -406)">EventController</text></g></g><g><path fill="none" stroke="#000000" paint-order="fill stroke markers" d=" M 481 584 L 339 583" stroke-miterlimit="10" stroke-dasharray=""/></g><g><path fill="none" stroke="#000000" paint-order="fill stroke markers" d=" M 349.1920666227116 578.8621529803281 L 339 583 L 349.13277911034703 587.2809797361019" stroke-miterlimit="10" stroke-dasharray=""/></g><g><path fill="none" stroke="#000000" paint-order="fill stroke markers" d=" M 481 654 L 339 654" stroke-miterlimit="10" stroke-dasharray=""/></g><g><path fill="none" stroke="#000000" paint-order="fill stroke markers" d=" M 349.16267485762415 649.7904822439841 L 339 654 L 349.16267485762415 658.2095177560159" stroke-miterlimit="10" stroke-dasharray=""/></g><g><path fill="none" stroke="#000000" paint-order="fill stroke markers" d=" M 481 742 L 339 742" stroke-miterlimit="10" stroke-dasharray=""/></g><g><path fill="none" stroke="#000000" paint-order="fill stroke markers" d=" M 349.16267485762415 737.7904822439841 L 339 742 L 349.16267485762415 746.2095177560159" stroke-miterlimit="10" stroke-dasharray=""/></g><g><g><path fill="none" stroke="none"/><text fill="#330066" stroke="none" font-family="Arial" font-size="13px" font-style="normal" font-weight="normal" text-decoration="undefined" x="45" y="973" text-anchor="start" dominant-baseline="text-before-edge" transform="matrix(1 0 0 1 2 -406)">registroSesion.html</text></g></g><g><g><path fill="none" stroke="none"/><text fill="#330066" stroke="none" font-family="Arial" font-size="13px" font-style="normal" font-weight="normal" text-decoration="undefined" x="45" y="989" text-anchor="start" dominant-baseline="text-before-edge" transform="matrix(1 0 0 1 2 -406)">error.html</text></g></g><g><g><path fill="none" stroke="none"/><text fill="#330066" stroke="none" font-family="Arial" font-size="13px" font-style="normal" font-weight="normal" text-decoration="undefined" x="45" y="1005" text-anchor="start" dominant-baseline="text-before-edge" transform="matrix(1 0 0 1 2 -406)">ticketComprado.html</text></g></g><g><g><path fill="none" stroke="none"/><text fill="#330066" stroke="none" font-family="Arial" font-size="13px" font-style="normal" font-weight="normal" text-decoration="undefined" x="45" y="957" text-anchor="start" dominant-baseline="text-before-edge" transform="matrix(1 0 0 1 2 -406)">misdatos.html</text></g></g><g><g><path fill="none" stroke="none"/><text fill="#330066" stroke="none" font-family="Arial" font-size="13px" font-style="normal" font-weight="normal" text-decoration="undefined" x="45" y="1037" text-anchor="start" dominant-baseline="text-before-edge" transform="matrix(1 0 0 1 2 -406)">index.html</text></g></g><g><g><path fill="none" stroke="none"/><text fill="#330066" stroke="none" font-family="Arial" font-size="13px" font-style="normal" font-weight="normal" text-decoration="undefined" x="45" y="1053" text-anchor="start" dominant-baseline="text-before-edge" transform="matrix(1 0 0 1 2 -406)">contactanos.html</text></g></g><g><g><path fill="none" stroke="none"/><text fill="#330066" stroke="none" font-family="Arial" font-size="13px" font-style="normal" font-weight="normal" text-decoration="undefined" x="45" y="1067" text-anchor="start" dominant-baseline="text-before-edge" transform="matrix(1 0 0 1 2 -406)">register.html</text></g></g><g><g><path fill="none" stroke="none"/><text fill="#330066" stroke="none" font-family="Arial" font-size="13px" font-style="normal" font-weight="normal" text-decoration="undefined" x="45" y="1117" text-anchor="start" dominant-baseline="text-before-edge" transform="matrix(1 0 0 1 2 -406)">clubbing.html</text></g></g><g><g><path fill="none" stroke="none"/><text fill="#330066" stroke="none" font-family="Arial" font-size="13px" font-style="normal" font-weight="normal" text-decoration="undefined" x="45" y="1133" text-anchor="start" dominant-baseline="text-before-edge" transform="matrix(1 0 0 1 2 -406)">conciertos.html</text></g></g><g><g><path fill="none" stroke="none"/><text fill="#330066" stroke="none" font-family="Arial" font-size="13px" font-style="normal" font-weight="normal" text-decoration="undefined" x="45" y="1149" text-anchor="start" dominant-baseline="text-before-edge" transform="matrix(1 0 0 1 2 -406)">ticket.html</text></g></g><g><g><path fill="none" stroke="none"/><text fill="#330066" stroke="none" font-family="Arial" font-size="13px" font-style="normal" font-weight="normal" text-decoration="undefined" x="45" y="1165" text-anchor="start" dominant-baseline="text-before-edge" transform="matrix(1 0 0 1 2 -406)">comentarSinCuenta.html</text></g></g><g><g><path fill="none" stroke="none"/><text fill="#330066" stroke="none" font-family="Arial" font-size="13px" font-style="normal" font-weight="normal" text-decoration="undefined" x="45" y="1181" text-anchor="start" dominant-baseline="text-before-edge" transform="matrix(1 0 0 1 2 -406)">error.html</text></g></g><g><g><path fill="none" stroke="none"/><text fill="#330066" stroke="none" font-family="Arial" font-size="13px" font-style="normal" font-weight="normal" text-decoration="undefined" x="45" y="1197" text-anchor="start" dominant-baseline="text-before-edge" transform="matrix(1 0 0 1 2 -406)">commentEliminado.html</text></g></g><g><g><path fill="none" stroke="none"/><text fill="#330066" stroke="none" font-family="Arial" font-size="13px" font-style="normal" font-weight="normal" text-decoration="undefined" x="45" y="1213" text-anchor="start" dominant-baseline="text-before-edge" transform="matrix(1 0 0 1 2 -406)">eventEliminado.html</text></g></g><g><g><path fill="none" stroke="none"/><text fill="#330066" stroke="none" font-family="Arial" font-size="13px" font-style="normal" font-weight="normal" text-decoration="undefined" x="45" y="1229" text-anchor="start" dominant-baseline="text-before-edge" transform="matrix(1 0 0 1 2 -406)">newEvent.html</text></g></g><g><g><path fill="none" stroke="none"/><text fill="#330066" stroke="none" font-family="Arial" font-size="13px" font-style="normal" font-weight="normal" text-decoration="undefined" x="45" y="1245" text-anchor="start" dominant-baseline="text-before-edge" transform="matrix(1 0 0 1 2 -406)">createdEvent.html</text></g></g><g><path fill="none" stroke="#000000" paint-order="fill stroke markers" d=" M 595 740 L 642 738 L 642 658 L 697 657" stroke-miterlimit="10" stroke-dasharray=""/></g><g><path fill="none" stroke="#000000" paint-order="fill stroke markers" d=" M 686.9155285459009 661.3935675130194 L 697 657 L 686.7624804680675 652.9759232321812" stroke-miterlimit="10" stroke-dasharray=""/></g><g><path fill="none" stroke="#000000" paint-order="fill stroke markers" d=" M 595 741 L 697 739" stroke-miterlimit="10" stroke-dasharray=""/></g><g><path fill="none" stroke="#000000" paint-order="fill stroke markers" d=" M 686.9218018899201 743.407938617311 L 697 739 L 686.7567544868664 734.9905210615757" stroke-miterlimit="10" stroke-dasharray=""/></g><g><path fill="none" stroke="#000000" paint-order="fill stroke markers" d=" M 538 763 L 538 826 L 697 825" stroke-miterlimit="10" stroke-dasharray=""/></g><g><path fill="none" stroke="#000000" paint-order="fill stroke markers" d=" M 686.8640005615764 829.2733494339075 L 697 825 L 686.811051699892 820.8544804260832" stroke-miterlimit="10" stroke-dasharray=""/></g><g><path fill="none" stroke="#000000" paint-order="fill stroke markers" d=" M 595 740 L 642 738 L 642 586 L 697 585" stroke-miterlimit="10" stroke-dasharray=""/></g><g><path fill="none" stroke="#000000" paint-order="fill stroke markers" d=" M 686.9155285459009 589.3935675130193 L 697 585 L 686.7624804680675 580.9759232321812" stroke-miterlimit="10" stroke-dasharray=""/></g><g><path fill="none" stroke="#000000" paint-order="fill stroke markers" d=" M 591 584 L 697 584" stroke-miterlimit="10" stroke-dasharray=""/></g><g><path fill="none" stroke="#000000" paint-order="fill stroke markers" d=" M 686.8373251423759 588.209517756016 L 697 584 L 686.8373251423758 579.790482243984" stroke-miterlimit="10" stroke-dasharray=""/></g><g><path fill="none" stroke="#000000" paint-order="fill stroke markers" d=" M 591 585 L 644 586 L 642 658 L 697 657" stroke-miterlimit="10" stroke-dasharray=""/></g><g><path fill="none" stroke="#000000" paint-order="fill stroke markers" d=" M 686.9155285459009 661.3935675130194 L 697 657 L 686.7624804680675 652.9759232321812" stroke-miterlimit="10" stroke-dasharray=""/></g><g><path fill="none" stroke="#000000" paint-order="fill stroke markers" d=" M 595 655 L 697 655" stroke-miterlimit="10" stroke-dasharray=""/></g><g><path fill="none" stroke="#000000" paint-order="fill stroke markers" d=" M 686.8373251423759 659.2095177560159 L 697 655 L 686.8373251423758 650.7904822439841" stroke-miterlimit="10" stroke-dasharray=""/></g><g><path fill="none" stroke="#000000" paint-order="fill stroke markers" d=" M 835 584 L 929 584" stroke-miterlimit="10" stroke-dasharray=""/></g><g><path fill="none" stroke="#000000" paint-order="fill stroke markers" d=" M 918.8373251423759 588.209517756016 L 929 584 L 918.8373251423758 579.790482243984" stroke-miterlimit="10" stroke-dasharray=""/></g><g><path fill="none" stroke="#000000" paint-order="fill stroke markers" d=" M 837 656 L 929 656" stroke-miterlimit="10" stroke-dasharray=""/></g><g><path fill="none" stroke="#000000" paint-order="fill stroke markers" d=" M 918.8373251423759 660.2095177560159 L 929 656 L 918.8373251423758 651.7904822439841" stroke-miterlimit="10" stroke-dasharray=""/></g><g><path fill="none" stroke="#000000" paint-order="fill stroke markers" d=" M 835 737 L 929 736" stroke-miterlimit="10" stroke-dasharray=""/></g><g><path fill="none" stroke="#000000" paint-order="fill stroke markers" d=" M 918.8826797356397 740.3173870185988 L 929 736 L 918.7931205957768 731.8988278714926" stroke-miterlimit="10" stroke-dasharray=""/></g><g><path fill="none" stroke="#000000" paint-order="fill stroke markers" d=" M 835 824 L 929 824" stroke-miterlimit="10" stroke-dasharray=""/></g><g><path fill="none" stroke="#000000" paint-order="fill stroke markers" d=" M 918.8373251423759 828.2095177560159 L 929 824 L 918.8373251423758 819.7904822439841" stroke-miterlimit="10" stroke-dasharray=""/></g></g></svg>